/* XPM */
static char * east_xpm[] = {
"64 64 2 1",
" 	c #F10606",
".	c #000000",
"                                                                ",
"                                                                ",
"                                                                ",
"                                                                ",
"                                                                ",
"                                                                ",
"                                                                ",
"                                                                ",
"                                                                ",
"                                                                ",
"                                                                ",
"                                                                ",
"                                                                ",
"                                                                ",
"             ....................                               ",
"             .............................                      ",
"          .................................                     ",
"          ..................................                    ",
"          ..................................                    ",
"          .....              ...............                    ",
"          .....                       ......                    ",
"          .....                        .....                    ",
"          .....                                                 ",
"          .....                                                 ",
"          .....                                                 ",
"          .....                                                 ",
"          .....                                                 ",
"          .....                                                 ",
"          .....                                                 ",
"          .....                                                 ",
"          .....                                                 ",
"          .....                                                 ",
"         ......                                                 ",
"         ......                                                 ",
"         ......                                                 ",
"         ......  ....................                           ",
"         ................................                       ",
"         ................................                       ",
"         ................................                       ",
"         ................................                       ",
"         .............           ........                       ",
"         .....                                                  ",
"         .....                                                  ",
"         .....                                                  ",
"         .....                                                  ",
"         .....                                                  ",
"         ......                                                 ",
"         ......                                                 ",
"         ......                                                 ",
"         ......                                                 ",
"          .....                                                 ",
"          .....                                                 ",
"          .....                                                 ",
"          .....................                                 ",
"          ......................                                ",
"          ..........................   .......                  ",
"          ....................................                  ",
"          ....................................                  ",
"                           ...................                  ",
"                            ..................                  ",
"                                ............                    ",
"                                                                ",
"                                                                ",
"                                                                "};
