/* XPM */
static char * west_xpm[] = {
"64 64 2 1",
" 	c #FAFB00",
".	c #000000",
"                                                                ",
"                                                                ",
"                                                                ",
"                                                                ",
"                                                                ",
"                                                                ",
"                                                                ",
"                                                                ",
"                                                                ",
"                                                                ",
"                                                                ",
"                                                                ",
"                                                                ",
"                                                    .....       ",
"                                                   ......       ",
"                                                   ......       ",
"                            .......               .......       ",
"                            ........              .......       ",
"                            .........             .......       ",
"                            ..........            ......        ",
"                            ..........            ......        ",
"                            ..........            .....         ",
"                            ..........            .....         ",
"        .....               ...........           .....         ",
"        ......              ............          .....         ",
"        ......              .............         .....         ",
"        .......             .............         .....         ",
"        ........           ...... ........        .....         ",
"         .......          .......  .......        .....         ",
"         ........        ........   ......       ......         ",
"          .......        ........   ......      .......         ",
"           ......        ........    ......     .......         ",
"           ......        ......      ......     .......         ",
"            ......      ......       ......    ........         ",
"            ......      ......       ......    ......           ",
"            ......      ......        ......  .......           ",
"            .......     ......        ......  .......           ",
"             .......    ......        ....... .......           ",
"             ........   .....         ..............            ",
"             ........   .....          .............            ",
"              ........ ......          ............             ",
"               ....... ......           ...........             ",
"                .............            ..........             ",
"                .............            ..........             ",
"                 ............            ..........             ",
"                 ...........             ..........             ",
"                  ..........              .........             ",
"                   .........              .........             ",
"                    ........              .........             ",
"                    ........              .........             ",
"                    ........               ........             ",
"                    ........               .......              ",
"                    ........               .......              ",
"                    ........               .......              ",
"                     .......               .......              ",
"                                           .......              ",
"                                           .......              ",
"                                           .......              ",
"                                           ......               ",
"                                                                ",
"                                                                ",
"                                                                ",
"                                                                ",
"                                                                "};
