/* XPM */
static char * south_xpm[] = {
"64 64 2 1",
" 	c #1FB902",
".	c #000000",
"                                                                ",
"                                                                ",
"                                                                ",
"                                                                ",
"                                                                ",
"                                                                ",
"                                                                ",
"                                                                ",
"                                                                ",
"                                                                ",
"                                                                ",
"                                                                ",
"                                                                ",
"           ....................................                 ",
"           ......................................               ",
"           .......................................              ",
"          ..........................................            ",
"          ..........................................            ",
"          ......                           .........            ",
"          ......                             .......            ",
"          ......                              ......            ",
"          .....                               .....             ",
"          .....                                                 ",
"          .....                                                 ",
"          ......                                                ",
"          ......                                                ",
"          ......                                                ",
"          .......                                               ",
"           ......                                               ",
"           .......                                              ",
"           .......                                              ",
"           ........                                             ",
"            .........                                           ",
"             .............                                      ",
"             ..............                                     ",
"              ........................                          ",
"               ...........................                      ",
"                 ............................                   ",
"                      ........................                  ",
"                       ........................                 ",
"                                  ..............                ",
"                                      ...........               ",
"                                         ........               ",
"                                         ........               ",
"                                           ......               ",
"                                           ......               ",
"                                           ......               ",
"                                         ........               ",
"                                         .......                ",
"                                        ........                ",
"                                       .........                ",
"            .....                   ............                ",
"            .......               ............                  ",
"            ........             ............                   ",
"            ................................                    ",
"            ................................                    ",
"             ............................                       ",
"               .......................                          ",
"                ......................                          ",
"                                                                ",
"                                                                ",
"                                                                ",
"                                                                ",
"                                                                "};
